<?xml version="1.0" encoding="utf-8"?>
<!-- Generator: Adobe Illustrator 18.0.0, SVG Export Plug-In . SVG Version: 6.00 Build 0)  -->
<!DOCTYPE svg PUBLIC "-//W3C//DTD SVG 1.1//EN" "http://www.w3.org/Graphics/SVG/1.1/DTD/svg11.dtd">
<svg version="1.1" id="Capa_1" xmlns="http://www.w3.org/2000/svg" xmlns:xlink="http://www.w3.org/1999/xlink" x="0px" y="0px"
	 viewBox="0 0 666.1 949.6" enable-background="new 0 0 666.1 949.6" xml:space="preserve">
<linearGradient id="SVGID_1_" gradientUnits="userSpaceOnUse" x1="124.5349" y1="31.6881" x2="149.6051" y2="31.6881" gradientTransform="matrix(2.4581 0 0 2.4581 1.654053e-002 154.0092)">
	<stop  offset="0" style="stop-color:#8E1913"/>
	<stop  offset="0.503" style="stop-color:#DB1D23"/>
	<stop  offset="1" style="stop-color:#E52529"/>
</linearGradient>
<circle fill="url(#SVGID_1_)" cx="337" cy="231.9" r="30.7"/>
<linearGradient id="SVGID_2_" gradientUnits="userSpaceOnUse" x1="124.5349" y1="215.3258" x2="149.6051" y2="215.3258" gradientTransform="matrix(2.4581 0 0 2.4581 1.654053e-002 154.0092)">
	<stop  offset="0" style="stop-color:#2AABE3"/>
	<stop  offset="1" style="stop-color:#CFEBF9"/>
</linearGradient>
<circle fill="url(#SVGID_2_)" cx="337" cy="683.3" r="30.7"/>
<linearGradient id="SVGID_3_" gradientUnits="userSpaceOnUse" x1="189.425" y1="58.6398" x2="214.475" y2="58.6398" gradientTransform="matrix(2.4581 0 0 2.4581 1.654053e-002 154.0092)">
	<stop  offset="0" style="stop-color:#AE2B87"/>
	<stop  offset="1" style="stop-color:#F29DC3"/>
</linearGradient>
<path fill="url(#SVGID_3_)" d="M518.2,319.9c-12,12-31.5,12-43.5,0s-12-31.5,0-43.5s31.5-12,43.5,0
	C530.2,288.2,530.2,307.9,518.2,319.9z"/>
<linearGradient id="SVGID_4_" gradientUnits="userSpaceOnUse" x1="59.6504" y1="188.3741" x2="84.7216" y2="188.3741" gradientTransform="matrix(2.4581 0 0 2.4581 1.654053e-002 154.0092)">
	<stop  offset="0" style="stop-color:#99C440"/>
	<stop  offset="1" style="stop-color:#E2EAB5"/>
</linearGradient>
<path fill="url(#SVGID_4_)" d="M199.4,638.8c-12,12-31.5,12-43.5,0s-12-31.5,0-43.5s31.5-12,43.5,0
	C211.1,607.3,211.1,626.7,199.4,638.8z"/>
<linearGradient id="SVGID_5_" gradientUnits="userSpaceOnUse" x1="59.6504" y1="58.6398" x2="84.7004" y2="58.6398" gradientTransform="matrix(2.4581 0 0 2.4581 1.654053e-002 154.0092)">
	<stop  offset="0" style="stop-color:#C6511A"/>
	<stop  offset="0.503" style="stop-color:#DF6D1E"/>
	<stop  offset="1" style="stop-color:#EF7726"/>
</linearGradient>
<path fill="url(#SVGID_5_)" d="M199.4,276.4c12,12,12,31.5,0,43.5s-31.5,12-43.5,0s-12-31.5,0-43.5
	C167.6,264.4,187.3,264.4,199.4,276.4z"/>
<linearGradient id="SVGID_6_" gradientUnits="userSpaceOnUse" x1="189.425" y1="189.1725" x2="214.475" y2="189.1725" gradientTransform="matrix(2.4581 0 0 2.4581 1.654053e-002 154.0092)">
	<stop  offset="0" style="stop-color:#0C74BB"/>
	<stop  offset="1" style="stop-color:#7AB7E4"/>
</linearGradient>
<path fill="url(#SVGID_6_)" d="M518.2,597.3c12,12,12,31.5,0,43.5s-31.5,12-43.5,0s-12-31.5,0-43.5
	C486.7,585.2,506.1,585.2,518.2,597.3z"/>
<g>
	<path fill="#E52529" d="M337,273.7c0,0-32.9,0.5-40.1-32.2c-18.4-2.9-44-14.7-70.8-50.6c19,45.2,35.2,79.1,110.9,138.1
		C337,301.5,337,273.7,337,273.7z"/>
	<path fill="#E52529" d="M337,273.7c0,0,32.9,0.5,40.1-32.2c18.4-2.9,44-14.7,70.8-50.6C428.9,236.1,412.7,270,337,329
		C337,301.5,337,273.7,337,273.7z"/>
</g>
<g>
	<path fill="#2AABE3" d="M337,638.5c0,0,32.9-0.5,40.1,32.2c18.4,2.9,44,14.7,70.8,50.6C429,676.1,412.7,642.1,337,583.2
		C337,610.7,337,638.5,337,638.5z"/>
	<path fill="#2AABE3" d="M337,638.5c0,0-32.9-0.5-40.1,32.2c-18.4,2.9-44,14.7-70.8,50.6c18.9-45.2,35.2-79.2,110.9-138.1
		C337,610.7,337,638.5,337,638.5z"/>
</g>
<g>
	<path fill="#0A72B9" d="M466.1,587.2c0,0,23.1-23.6,51.1-5.4c15.2-10.8,41.5-20.9,85.8-14.3c-45.5-18.7-80.9-31.2-176-19.2
		C446.4,567.5,466.1,587.2,466.1,587.2z"/>
	<path fill="#0A72B9" d="M466.1,587.2c0,0-23.6,23.1-5.4,51.1c-10.8,15.2-20.9,41.5-14.3,85.8c-18.7-45.5-31.2-80.9-19.2-176
		C446.4,567.5,466.1,587.2,466.1,587.2z"/>
</g>
<g>
	<path fill="#F08224" d="M208,327.1c0,0-23.1,23.6-51.1,5.4c-15.2,10.8-41.5,20.9-85.8,14.3c45.5,18.7,80.9,31.2,176,19.2
		C227.6,346.7,208,327.1,208,327.1z"/>
	<path fill="#F08224" d="M208,327.1c0,0,23.6-23.1,5.4-51.1c10.8-15.2,20.9-41.5,14.3-85.8c18.7,45.5,31.2,80.9,19.2,176
		C227.6,346.7,208,327.1,208,327.1z"/>
</g>
<g>
	<path fill="#E32285" d="M466.1,327.1c0,0-23.6-23.1-5.4-51.1c-10.8-15.2-20.9-41.5-14.3-85.8c-18.7,45.5-31.2,80.9-19.2,176
		C446.4,346.7,466.1,327.1,466.1,327.1z"/>
	<path fill="#E32285" d="M466.1,327.1c0,0,23.1,23.6,51.1,5.4c15.2,10.8,41.5,20.9,85.8,14.3c-45.5,18.7-80.9,31.2-176,19.2
		C446.4,346.7,466.1,327.1,466.1,327.1z"/>
</g>
<g>
	<path fill="#9DC540" d="M208,585.2c0,0,23.6,23.1,5.4,51.1c10.8,15.2,20.9,41.5,14.3,85.8c18.7-45.5,31.2-80.9,19.2-176
		C227.6,565.5,208,585.2,208,585.2z"/>
	<path fill="#9DC540" d="M208,585.2c0,0-23.1-23.6-51.1-5.4c-15.2-10.8-41.5-20.9-85.8-14.3c45.5-18.7,80.9-31.2,176-19.2
		C227.6,565.5,208,585.2,208,585.2z"/>
</g>
<text transform="matrix(1 0 0 1 131.6634 517.8848)" fill="#FBB81B" font-family="'MonotypeCorsiva'" font-size="209.5225" letter-spacing="15">E</text>
<text transform="matrix(1 0 0 1 277.765 517.8848)" fill="#A70B29" font-family="'MonotypeCorsiva'" font-size="209.5225" letter-spacing="4">S</text>
<text transform="matrix(1 0 0 1 379.166 517.8848)" fill="#AE2B87" font-family="'MonotypeCorsiva'" font-size="209.5225" letter-spacing="4">R</text>
</svg>
